<?xml version="1.0" encoding="utf-8"?>
<!-- Generator: Adobe Illustrator 25.2.1, SVG Export Plug-In . SVG Version: 6.00 Build 0)  -->
<svg version="1.1" xmlns="http://www.w3.org/2000/svg" xmlns:xlink="http://www.w3.org/1999/xlink" x="0px" y="0px"
	 viewBox="0 0 350 250" style="enable-background:new 0 0 350 250;" xml:space="preserve">
<style type="text/css">
	.st0{fill:#FFFFFF;}
</style>
<g id="RLetter">
	<path class="st0" d="M9,57.4c-0.7-1.2,0.2-2.6,1.5-2.6h72.8c0.1,0,0.3,0,0.4,0c3.6,0.2,37.5,5.9,45.7,40
		c9.9,41.1-23.3,57.6-31.7,59.7c-1.8,0.5,0.9,4.4,1.4,5.3l29.1,53.4c0.6,1.2-0.2,2.6-1.6,2.6h-25.6c-0.6,0-1.2-0.3-1.5-0.9
		l-36.9-62.5l-8.2-14.6c-0.7-1.2,0.2-2.6,1.5-2.6l25.2-0.2c2.2,0,4.5-0.4,6.6-1.2c6.8-2.6,18-11.5,17.2-24.6
		c-1.3-21.6-17.2-25.6-24.1-27c-2-0.4-3.9-0.6-5.9-0.6l-51.1,0.2c-0.6,0-1.2-0.3-1.5-0.9L9,57.4z"/>
</g>
<g id="LineOnA">
	<path class="st0" d="M272,208.1L195.6,57.7c-2-3.9-7.6-3.9-9.5,0l-6.3,12.7l73.5,145.4h14C271.2,215.8,273.8,211.6,272,208.1z"/>
</g>
<g id="ALetter">
	<path class="st0" d="M178.4,73.1l-67.1,135c-1.8,3.5,0.8,7.7,4.8,7.7h17.3c2,0,3.8-1.1,4.7-2.9l47.9-93.2c2-3.9,7.5-3.9,9.5,0
		l46.9,93.1c0.9,1.8,2.7,2.9,4.8,2.9h3.8L178.4,73.1z"/>
</g>
<g id="LineUnder2">
	<path class="st0" d="M248,210.1l-0.9,1.6c-1.1,1.8,0.3,4.1,2.4,4.1h79.2c1,0,2-0.6,2.5-1.5l2-4L248,210.1z"/>
</g>
<g id="_x32_Number">
	<path class="st0" d="M235.7,77.7c0.7,1.2,1.6,2.3,2.8,3c0.2,0.1,0.3,0.2,0.4,0.3c1.3,0.7,2.7,1,4.1,1l36.7,0.1
		c2.5,0,4.9,0.6,7.1,1.9c28.1,16,12,42,11.2,43.3c0,0,0,0.1-0.1,0.1l-47.6,82.7l84.9,0.4l6.4-12.7c0.9-1.8-0.4-4-2.5-4h-44.3
		c-2.1,0-3.4-2.3-2.4-4.1l34.2-61.4c1.2-2.1,2-4.4,2.5-6.7c1.5-7.7,3.4-25.1-6-40c-13.7-21.7-32.1-26.3-38-27.3c-1-0.2-2-0.2-3-0.2
		h-54.7c-2.1,0-3.4,2.2-2.4,4.1L235.7,77.7z"/>
	<g>
	</g>
	<g>
	</g>
	<g>
	</g>
	<g>
	</g>
	<g>
	</g>
	<g>
	</g>
	<g>
	</g>
	<g>
	</g>
	<g>
	</g>
	<g>
	</g>
	<g>
	</g>
	<g>
	</g>
	<g>
	</g>
	<g>
	</g>
	<g>
	</g>
</g>
</svg>
