<?xml version="1.0" standalone="no"?>
<!DOCTYPE svg PUBLIC "-//W3C//DTD SVG 20010904//EN"
 "http://www.w3.org/TR/2001/REC-SVG-20010904/DTD/svg10.dtd">
<svg version="1.0" xmlns="http://www.w3.org/2000/svg"
 width="396.000000pt" height="396.000000pt" viewBox="0 0 396.000000 396.000000"
 preserveAspectRatio="xMidYMid meet">
<metadata>
Created by potrace 1.14, written by Peter Selinger 2001-2017
</metadata>
<g transform="translate(0.000000,396.000000) scale(0.100000,-0.100000)"
fill="#000000" stroke="none">
<path d="M132 3943 c-45 -15 -80 -49 -103 -98 -18 -38 -19 -112 -19 -1865 l0
-1826 23 -44 c13 -26 40 -57 65 -75 l44 -30 1826 0 c1116 -1 1839 3 1857 8 48
16 96 57 116 101 18 40 19 105 19 1864 0 1623 -2 1827 -15 1860 -20 47 -50 79
-95 100 -32 16 -174 17 -1859 17 -1367 0 -1833 -3 -1859 -12z"/>
</g>
</svg>
